<?xml version="1.0" standalone="no"?>
<!DOCTYPE svg PUBLIC "-//W3C//DTD SVG 20010904//EN"
 "http://www.w3.org/TR/2001/REC-SVG-20010904/DTD/svg10.dtd">
<svg version="1.0" xmlns="http://www.w3.org/2000/svg"
 width="3000.000000pt" height="2000.000000pt" viewBox="0 0 3000.000000 2000.000000"
 preserveAspectRatio="xMidYMid meet">

<g transform="translate(0.000000,2000.000000) scale(0.100000,-0.100000)"
fill="#000000" stroke="none">
<path d="M2 12713 c3 -6100 5 -7288 16 -7285 8 1 60 -2 115 -7 220 -22 376
-29 404 -19 15 5 22 4 20 -3 -1 -7 28 -12 85 -13 47 0 84 -5 81 -9 -3 -5 12
-5 32 -1 27 5 40 3 46 -7 6 -9 9 -10 9 -2 0 8 9 9 28 5 15 -4 50 -7 77 -6 28
1 54 -1 59 -4 5 -3 32 -6 60 -7 28 -1 81 -4 117 -5 36 -2 71 0 77 4 7 4 12 2
12 -3 0 -6 23 -11 53 -12 28 0 76 -4 105 -8 29 -4 55 -5 57 -1 2 4 34 3 71 -2
37 -4 71 -5 75 -2 5 3 9 2 9 -3 0 -4 19 -9 42 -9 132 -5 198 -10 198 -15 0 -4
13 -6 28 -4 16 1 52 -1 80 -5 28 -3 49 -3 46 1 -2 4 13 5 34 2 20 -2 64 -6 97
-8 33 -2 80 -6 105 -9 60 -7 180 -15 315 -22 104 -5 210 -12 210 -14 0 -1 167
-12 217 -13 32 -1 58 -4 58 -7 0 -3 21 -4 47 -2 27 2 68 -1 93 -7 33 -7 46 -7
52 2 5 8 8 8 8 1 0 -6 17 -12 38 -13 20 -1 78 -4 127 -6 50 -2 122 -7 160 -10
39 -4 93 -6 120 -7 28 0 54 -2 58 -5 4 -3 43 -6 85 -8 189 -9 271 -14 328 -20
34 -3 83 -7 111 -9 27 -2 59 -7 71 -10 15 -5 22 -3 22 6 0 10 2 10 9 -1 6 -9
19 -12 36 -9 15 3 60 2 99 -2 39 -5 121 -11 181 -15 156 -9 228 -14 325 -24
47 -4 90 -4 96 0 6 5 14 6 18 2 9 -9 28 -11 181 -18 72 -3 132 -10 133 -15 2
-6 8 -10 13 -10 6 0 8 4 4 9 -3 6 10 5 31 0 25 -8 39 -7 50 2 11 9 14 9 14 0
0 -7 5 -9 12 -5 6 4 18 -2 26 -12 13 -17 14 -17 9 -1 -6 15 -3 16 13 7 24 -13
43 -13 35 0 -9 15 8 12 34 -6 17 -12 26 -13 34 -5 16 16 48 14 41 -3 -3 -8 -1
-17 5 -21 6 -3 11 0 11 7 0 9 15 13 53 11 77 -2 77 -2 71 -18 -5 -13 -23 -14
-107 -10 -63 4 -104 10 -109 18 -6 9 -8 9 -8 0 0 -13 -71 -13 -315 2 -119 7
-253 14 -400 20 -120 5 -281 13 -385 20 -30 1 -111 6 -180 9 -179 9 -305 16
-380 21 -36 3 -128 8 -205 11 -77 3 -157 7 -178 9 -21 2 -118 7 -215 10 -97 4
-179 9 -182 10 -3 2 -84 6 -180 9 -96 4 -200 9 -230 12 -66 6 -171 11 -345 19
-71 3 -157 7 -190 10 -64 5 -225 14 -394 20 -57 3 -181 9 -275 15 -94 5 -220
12 -281 15 -60 3 -177 10 -260 15 -82 5 -222 12 -310 15 -167 7 -280 12 -377
19 -33 3 -61 0 -64 -6 -4 -7 -9 -7 -13 0 -4 6 -71 14 -159 18 l-152 6 1 -161
c0 -88 4 -163 8 -165 4 -3 61 -8 127 -11 126 -7 194 -12 259 -19 22 -3 103 -8
180 -11 77 -4 142 -8 145 -10 3 -1 64 -6 135 -9 72 -4 141 -9 155 -11 14 -3
75 -7 135 -10 166 -8 287 -15 315 -20 14 -3 113 -10 220 -16 202 -11 231 -13
365 -23 44 -3 123 -8 175 -12 52 -3 113 -7 135 -9 22 -2 87 -6 145 -9 58 -4
116 -8 130 -11 14 -2 86 -7 160 -10 74 -3 191 -11 260 -17 69 -6 140 -11 158
-11 17 0 32 -5 32 -11 0 -7 3 -7 8 0 5 9 34 9 102 4 310 -27 320 -28 440 -34
258 -14 316 -19 327 -28 6 -5 14 -5 17 0 2 4 31 5 63 2 31 -4 70 -6 85 -5 15
1 28 -1 28 -5 0 -4 24 -6 53 -5 28 1 62 -2 74 -6 14 -5 23 -4 27 4 3 8 7 9 13
1 4 -5 31 -9 58 -9 28 1 55 -1 60 -4 6 -3 19 -6 30 -7 11 -1 83 -4 160 -8 124
-6 168 -10 185 -16 3 -1 38 -1 78 0 44 1 72 -2 72 -9 0 -10 63 -6 83 6 6 4 7
1 2 -7 -6 -9 4 -11 43 -9 37 3 48 1 41 -7 -10 -12 -239 -17 -239 -5 0 3 -38 5
-85 5 -58 -1 -85 2 -85 10 0 7 -3 7 -8 1 -4 -5 -49 -10 -100 -10 -71 0 -92 3
-92 14 0 11 -3 11 -15 1 -11 -9 -15 -9 -15 -1 0 7 -5 9 -13 4 -6 -4 -47 -8
-89 -8 -71 0 -78 2 -79 20 l0 20 -9 -20 c-6 -13 -9 -15 -9 -5 -1 10 -4 11 -9
4 -5 -8 -34 -10 -87 -7 -44 2 -110 5 -147 6 -38 1 -68 7 -68 12 0 6 -5 3 -10
-5 -8 -12 -11 -13 -19 -1 -7 10 -10 10 -13 1 -3 -10 -9 -10 -23 -3 -11 6 -46
9 -77 8 -32 -2 -58 0 -58 4 0 4 -7 8 -15 8 -8 0 -15 -4 -15 -9 0 -5 -4 -7 -8
-4 -5 3 -53 7 -108 11 -54 3 -133 7 -174 10 -41 2 -129 7 -195 10 -237 10
-351 16 -400 20 -27 3 -120 7 -205 10 -85 3 -171 7 -190 10 -19 3 -91 7 -160
10 -69 3 -195 10 -280 15 -151 9 -291 16 -475 25 -49 2 -119 7 -155 10 -36 2
-119 7 -185 10 -283 12 -363 16 -405 20 -25 2 -101 7 -170 10 -127 5 -262 12
-380 20 -36 2 -130 7 -210 10 -80 3 -160 8 -177 11 l-33 5 0 -265 c0 -202 3
-266 13 -269 10 -4 10 -6 0 -6 -7 -1 -13 -8 -13 -17 0 -14 3 -14 15 -4 9 7 19
9 23 5 4 -4 1 -10 -6 -12 -17 -6 -15 -23 2 -23 8 0 16 -6 19 -12 3 -9 10 -7
21 7 15 19 17 19 27 2 5 -9 15 -15 21 -11 7 4 6 9 -3 15 -7 4 -10 11 -7 14 4
4 16 0 28 -8 13 -9 17 -17 11 -22 -6 -3 -11 -11 -11 -16 0 -6 4 -7 10 -4 5 3
10 0 10 -8 0 -18 -27 -30 -36 -16 -4 6 -11 6 -20 -2 -12 -9 -14 -6 -14 20 0
27 -2 30 -14 19 -8 -7 -12 -16 -9 -20 2 -5 -9 -8 -26 -8 -23 0 -29 -4 -25 -15
4 -8 1 -15 -5 -15 -8 0 -11 -579 -11 -2090 l0 -2090 15000 0 15000 0 0 10000
0 10000 -15000 0 -15000 0 2 -7287z m14933 -1589 c-101 -1017 -242 -2425 -312
-3129 -70 -704 -128 -1282 -130 -1284 -3 -4 -27 -1 -827 105 -308 41 -562 77
-565 80 -3 3 6 40 20 82 89 261 442 1330 444 1342 1 8 7 26 12 40 21 52 726
2175 727 2190 1 8 4 17 7 20 3 3 186 546 405 1207 219 661 400 1200 401 1199
2 -1 -80 -835 -182 -1852z m-8995 -6104 c0 -6 6 -10 13 -9 30 4 47 -2 47 -17
0 -11 -5 -14 -16 -10 -9 3 -27 9 -40 12 -23 6 -35 34 -14 34 6 0 10 -5 10 -10z
m193 -13 c20 0 24 -2 15 -8 -7 -5 -26 -9 -41 -9 -16 0 -26 -4 -23 -9 4 -5 -3
-7 -14 -4 -11 3 -17 9 -14 14 3 5 -6 9 -20 9 -14 0 -26 4 -26 9 0 4 21 6 48 3
26 -2 60 -5 75 -5z m97 -16 c0 -5 -11 -8 -25 -8 -13 0 -22 3 -19 8 3 5 14 9
25 9 10 0 19 -4 19 -9z m327 -27 c-3 -3 -12 -4 -19 -1 -8 3 -5 6 6 6 11 1 17
-2 13 -5z m-1102 -378 c11 -2 28 -5 38 -5 9 -1 17 -5 17 -9 0 -10 -62 -8 -79
2 -7 4 -18 3 -25 -4 -11 -8 -15 -8 -19 2 -4 10 -8 10 -16 -2 -8 -11 -11 -12
-11 -2 0 10 -8 12 -30 7 -24 -5 -29 -4 -24 8 4 12 19 14 67 11 34 -2 71 -5 82
-8z m85 -10 c0 -3 -4 -8 -10 -11 -5 -3 -10 -1 -10 4 0 6 5 11 10 11 6 0 10 -2
10 -4z m30 -6 c0 -5 -5 -10 -11 -10 -5 0 -7 5 -4 10 3 6 8 10 11 10 2 0 4 -4
4 -10z m34 -6 c3 -8 2 -12 -4 -9 -6 3 -10 10 -10 16 0 14 7 11 14 -7z m141 -3
c-3 -6 -17 -11 -31 -11 -15 0 -23 4 -19 10 4 6 15 8 26 5 12 -4 19 -2 19 6 0
7 3 10 6 6 3 -3 3 -10 -1 -16z m-65 5 c0 -3 -4 -8 -10 -11 -5 -3 -10 -1 -10 4
0 6 5 11 10 11 6 0 10 -2 10 -4z m160 -8 c0 -4 -12 -8 -26 -8 -14 0 -23 4 -19
9 6 11 45 10 45 -1z m123 -5 c-7 -2 -19 -2 -25 0 -7 3 -2 5 12 5 14 0 19 -2
13 -5z m86 -9 c10 -9 -45 -3 -59 6 -11 7 -5 8 20 4 19 -4 37 -8 39 -10z
m-5813 -319 c17 -13 17 -14 2 -15 -10 0 -18 -4 -18 -9 0 -18 -30 -20 -39 -2
-9 16 -7 17 14 13 14 -2 25 0 25 6 0 6 -10 13 -22 15 -21 4 -21 4 -2 6 11 0
29 -6 40 -14z m18912 -26 c48 1 63 -1 59 -11 -2 -8 -19 -13 -41 -12 -20 1 -36
-4 -36 -10 0 -6 -5 -4 -10 4 -7 10 -10 11 -10 2 0 -8 -8 -10 -26 -6 -19 5 -25
4 -20 -5 4 -6 2 -11 -3 -11 -6 0 -11 5 -11 11 0 8 -4 8 -12 1 -17 -13 -90 -33
-83 -22 3 5 1 11 -5 15 -5 3 -10 0 -10 -8 0 -10 -7 -13 -20 -10 -11 3 -20 10
-20 15 0 5 -7 3 -15 -6 -11 -11 -27 -13 -58 -9 -23 3 -54 6 -69 6 -16 0 -28 4
-28 9 0 4 -15 8 -34 8 -19 0 -38 5 -41 10 -3 6 -30 11 -58 11 -108 3 82 16
262 18 96 1 177 4 180 6 2 3 14 2 25 -1 11 -4 49 -6 84 -5z m192 -4 c0 -2 -15
-5 -34 -7 -22 -2 -32 0 -29 7 3 9 63 9 63 0z m-19260 -5 c0 -5 -7 -10 -16 -10
-8 0 -12 5 -9 10 3 6 10 10 16 10 5 0 9 -4 9 -10z m19170 0 c0 -5 -7 -10 -15
-10 -8 0 -15 5 -15 10 0 6 7 10 15 10 8 0 15 -4 15 -10z m-19083 -22 c-3 -8
-6 -5 -6 6 -1 11 2 17 5 13 3 -3 4 -12 1 -19z m201 5 c-10 -2 -26 -2 -35 0
-10 3 -2 5 17 5 19 0 27 -2 18 -5z m17117 -12 c22 -2 -149 -27 -380 -57 -231
-30 -436 -56 -455 -58 -72 -10 -186 -26 -205 -30 -11 -3 -38 -5 -59 -5 -22 -1
-37 -4 -33 -7 3 -3 37 -6 76 -5 50 0 71 -3 71 -12 0 -6 5 -4 11 6 14 24 39 21
79 -8 21 -16 42 -23 54 -20 19 5 19 5 3 -5 -9 -6 -22 -8 -27 -5 -6 3 -10 1
-10 -4 0 -6 6 -11 14 -11 8 0 17 -3 19 -7 3 -5 -5 -8 -18 -8 -13 0 -21 3 -18
8 2 4 -3 7 -12 7 -9 0 -14 -4 -11 -9 3 -5 0 -11 -7 -14 -8 -3 -14 1 -14 9 0 8
5 14 11 14 6 0 6 4 -1 11 -6 6 -9 17 -7 24 3 7 1 16 -5 19 -6 4 -8 -5 -6 -24
5 -35 -13 -48 -64 -44 -22 1 -29 -1 -20 -7 16 -10 16 -10 -51 -13 -107 -6
-106 -6 -90 -16 25 -16 -7 -12 -42 6 -16 9 -27 11 -24 6 4 -6 2 -13 -4 -17 -5
-3 -10 0 -10 7 0 10 -2 10 -9 -1 -6 -9 -10 -10 -16 -2 -4 8 -11 9 -19 2 -12
-10 -79 -14 -159 -8 -29 2 -55 -2 -65 -9 -22 -17 -49 -18 -55 -1 -3 9 -11 9
-33 1 -16 -6 -41 -7 -57 -3 -15 4 -27 3 -27 -2 0 -5 5 -9 12 -9 6 0 8 -3 5 -6
-4 -4 -18 1 -32 10 -16 11 -33 15 -43 10 -27 -11 -212 -11 -212 1 0 5 -4 4 -8
-3 -11 -17 -82 -19 -92 -2 -7 11 -11 11 -24 1 -10 -8 -21 -9 -33 -3 -20 10
-44 5 -55 -12 -5 -7 -8 -5 -8 5 0 9 -7 16 -15 16 -8 0 -15 -4 -15 -9 0 -5 -9
-4 -19 2 -30 15 -72 12 -95 -7 -19 -17 -19 -16 2 20 12 22 54 83 92 137 l69
97 153 7 c84 3 297 8 473 11 176 4 340 8 365 10 25 2 234 7 465 11 231 3 421
7 422 8 4 3 222 1 268 -3z m-4433 -26 c40 -2 152 -6 248 -10 96 -3 182 -8 190
-10 78 -19 580 -25 1116 -12 l340 8 59 -88 c82 -123 130 -202 107 -175 -22 24
-38 30 -26 10 6 -10 4 -10 -7 -2 -10 8 -43 7 -119 -1 -58 -7 -154 -15 -215
-19 -60 -3 -144 -8 -185 -11 -41 -3 -241 -12 -445 -20 -203 -9 -786 -33 -1295
-55 -1005 -43 -1064 -45 -1055 -30 3 6 25 10 49 10 23 0 46 4 51 9 6 6 44 11
87 13 42 2 74 7 71 12 -3 5 6 7 21 4 15 -3 26 -1 27 6 0 6 3 5 6 -3 3 -8 8 -9
12 -3 6 9 54 19 126 26 17 2 50 9 74 15 24 7 56 13 72 13 16 1 29 6 29 12 0 6
5 4 10 -4 5 -8 10 -10 10 -4 0 7 15 11 36 10 20 -1 38 2 41 6 2 5 9 5 15 2 6
-4 13 -1 17 5 4 6 27 12 52 12 24 1 49 6 55 10 6 5 32 10 57 11 26 2 47 6 47
9 0 4 26 10 58 14 31 4 66 9 77 12 11 2 33 6 48 8 25 3 91 15 107 20 3 1 32 5
65 9 33 4 76 12 95 16 19 5 53 12 75 15 22 4 78 13 125 22 47 8 99 16 115 19
17 2 59 9 95 14 36 6 78 12 93 14 73 11 21 15 -204 16 -134 1 -266 3 -294 5
-27 2 -65 4 -82 4 -18 0 -33 5 -33 11 0 5 -7 10 -16 10 -9 0 -12 -5 -8 -12 6
-10 5 -10 -8 -1 -8 7 -17 11 -19 8 -9 -8 -100 20 -97 30 2 6 11 9 21 8 9 -2
17 2 17 8 0 5 4 7 10 4 5 -3 43 -8 82 -10z m-157 -5 c3 -5 -3 -10 -15 -10 -12
0 -18 5 -15 10 3 6 10 10 15 10 5 0 12 -4 15 -10z m7473 -6 c12 0 22 5 22 10
0 5 6 1 14 -9 8 -11 19 -16 30 -12 19 8 21 -3 4 -23 -7 -7 0 -6 16 4 24 15 28
16 23 3 -5 -12 1 -15 29 -12 19 2 34 -1 34 -7 0 -5 5 -6 10 -3 6 3 10 0 10 -7
0 -11 2 -11 9 0 7 11 14 11 44 -1 19 -9 38 -13 41 -10 3 3 13 2 23 -2 10 -4
41 -9 68 -11 28 -3 52 -9 53 -14 2 -6 7 -8 11 -6 4 3 29 -1 56 -9 26 -8 61
-15 77 -15 15 0 28 -4 28 -9 0 -6 8 -10 18 -10 9 0 31 -1 49 -2 17 0 37 -7 43
-14 6 -8 18 -11 26 -8 8 3 14 1 14 -4 0 -5 18 -7 40 -5 31 3 40 1 40 -11 0
-10 -7 -13 -20 -10 -11 3 -20 1 -20 -4 0 -6 12 -8 28 -6 35 6 72 6 78 1 2 -3
5 -24 7 -46 2 -38 17 -62 17 -27 0 10 10 15 30 15 17 0 30 -4 30 -9 0 -5 9 -7
20 -4 11 3 20 9 20 14 0 8 -7 10 -49 13 -8 1 -16 7 -19 14 -2 6 -8 12 -14 12
-6 0 -8 -7 -4 -15 3 -9 0 -15 -8 -15 -7 0 -12 10 -11 23 1 17 7 21 26 19 13
-2 28 -8 34 -13 5 -5 19 -9 32 -9 13 0 23 -4 23 -8 0 -5 10 -14 23 -20 18 -9
19 -11 4 -11 -10 -1 -15 -5 -12 -11 3 -5 -4 -11 -17 -12 -13 0 -27 -2 -33 -3
-5 -2 -14 -3 -20 -4 -5 0 -4 -6 3 -13 14 -14 16 -32 3 -23 -5 3 -12 1 -16 -5
-3 -5 0 -10 8 -10 8 0 17 -7 21 -15 4 -12 2 -13 -14 -3 -16 11 -22 9 -36 -7
-13 -17 -15 -17 -10 -2 6 18 -9 24 -19 7 -4 -6 -15 -8 -26 -5 -12 4 -21 1 -25
-9 -8 -20 -33 -20 -54 -1 -17 15 -50 11 -50 -6 0 -18 -49 -9 -63 12 -9 13 -17
16 -22 10 -3 -6 0 -11 7 -11 8 0 6 -5 -5 -11 -25 -14 -31 -6 -17 23 10 21 9
20 -14 -4 -30 -34 -39 -35 -31 -5 5 19 4 20 -5 5 -11 -19 -50 -22 -85 -9 -19
8 -19 8 3 15 22 7 31 26 12 26 -5 0 -10 -4 -10 -9 0 -15 -32 -22 -46 -10 -8 7
-28 9 -47 5 -18 -3 -58 -1 -88 5 -30 6 -75 12 -101 13 -28 0 -48 6 -48 12 0 7
-15 10 -36 8 -22 -1 -43 3 -51 12 -11 11 -19 11 -35 3 -18 -10 -20 -9 -15 4 5
13 2 15 -16 8 -35 -13 -87 -2 -80 17 4 9 2 13 -4 9 -6 -4 -13 -4 -16 0 -2 5
-2 3 -1 -4 2 -6 -4 -14 -12 -17 -9 -3 -12 -1 -9 4 3 6 -4 10 -17 11 -13 0 -32
2 -43 5 -11 2 -34 5 -51 6 -22 2 -30 7 -26 17 4 10 -1 11 -18 6 -15 -5 -26 -2
-32 6 -7 11 -11 11 -15 2 -6 -15 -35 -17 -49 -3 -5 5 -32 12 -59 14 -28 2 -61
8 -75 11 -14 4 -36 9 -50 12 -14 2 -32 7 -40 10 -8 3 -28 7 -45 8 -32 4 -108
18 -190 36 -27 6 -60 12 -72 13 -12 1 -25 5 -29 9 -4 4 -29 7 -55 7 -52 0 -73
14 -36 24 35 9 49 7 41 -6 -6 -10 -4 -10 7 -2 22 18 79 26 79 11 0 -9 2 -9 8
0 10 15 44 23 117 27 33 2 73 7 89 11 23 6 27 5 21 -6 -7 -11 -6 -12 6 -4 8 6
39 12 69 14 30 2 58 8 63 15 5 8 10 7 16 -3 7 -11 13 -12 23 -4 7 6 70 14 141
18 70 4 127 11 127 16 0 17 30 9 31 -8 1 -14 2 -15 5 -3 3 11 15 14 43 12 23
-2 42 1 46 8 4 7 10 8 14 3 3 -5 16 -9 29 -9z m152 -8 c0 -11 -19 -15 -25 -6
-3 5 1 10 9 10 9 0 16 -2 16 -4z m760 -66 c0 -5 -5 -10 -11 -10 -5 0 -7 5 -4
10 3 6 8 10 11 10 2 0 4 -4 4 -10z m57 -6 c-3 -3 -12 -4 -19 -1 -8 3 -5 6 6 6
11 1 17 -2 13 -5z m-4717 -45 c0 -6 7 -8 18 -4 14 5 15 4 4 -6 -10 -11 -15
-10 -29 4 -11 11 -13 17 -5 17 7 0 12 -5 12 -11z m95 -9 c3 -5 1 -10 -4 -10
-6 0 -11 5 -11 10 0 6 2 10 4 10 3 0 8 -4 11 -10z m4741 -167 c-10 -10 -19 5
-10 18 6 11 8 11 12 0 2 -7 1 -15 -2 -18z m24 -3 c0 -14 -6 -20 -22 -19 -17 1
-19 2 -5 6 9 2 17 11 17 19 0 8 2 14 5 14 3 0 5 -9 5 -20z m24 5 c-4 -8 -8
-15 -10 -15 -2 0 -4 7 -4 15 0 8 4 15 10 15 5 0 7 -7 4 -15z m59 -14 c-4 -16
-8 -19 -14 -10 -4 7 -3 19 3 26 14 18 19 12 11 -16z m-38 -10 c-3 -6 -11 -11
-16 -11 -5 0 -4 6 3 14 14 16 24 13 13 -3z m75 9 c0 -5 -5 -10 -11 -10 -5 0
-7 5 -4 10 3 6 8 10 11 10 2 0 4 -4 4 -10z m-55 -40 c3 -5 1 -10 -4 -10 -6 0
-11 5 -11 10 0 6 2 10 4 10 3 0 8 -4 11 -10z m-80 -18 c-3 -3 -11 0 -18 7 -9
10 -8 11 6 5 10 -3 15 -9 12 -12z m-625 -2 c0 -5 -4 -10 -9 -10 -6 0 -13 5
-16 10 -3 6 1 10 9 10 9 0 16 -4 16 -10z m590 -5 c0 -8 -2 -15 -4 -15 -2 0 -6
7 -10 15 -3 8 -1 15 4 15 6 0 10 -7 10 -15z m110 -15 c0 -5 -2 -10 -4 -10 -3
0 -8 5 -11 10 -3 6 -1 10 4 10 6 0 11 -4 11 -10z m-370 -10 c0 -5 -4 -10 -10
-10 -5 0 -10 5 -10 10 0 6 5 10 10 10 6 0 10 -4 10 -10z m-9442 -7 c-10 -2
-26 -2 -35 0 -10 3 -2 5 17 5 19 0 27 -2 18 -5z m9562 -3 c0 -5 -5 -10 -11
-10 -5 0 -7 5 -4 10 3 6 8 10 11 10 2 0 4 -4 4 -10z m-9663 -6 c-3 -3 -12 -4
-19 -1 -8 3 -5 6 6 6 11 1 17 -2 13 -5z m9493 2 c0 -2 -7 -6 -15 -10 -8 -3
-15 -1 -15 4 0 6 7 10 15 10 8 0 15 -2 15 -4z m-8790 -31 c305 -8 579 -15 609
-15 64 0 65 -8 1 -10 -25 -1 -67 -6 -95 -11 -48 -8 -76 -11 -275 -25 -46 -3
-93 -10 -103 -16 -10 -5 -25 -7 -33 -4 -8 3 -34 2 -59 -3 -32 -6 -45 -5 -45 3
0 8 -2 8 -8 0 -4 -7 -36 -14 -72 -18 -36 -3 -83 -8 -105 -11 -80 -9 -421 -38
-460 -39 -22 -1 -45 -4 -51 -8 -5 -4 -19 -6 -29 -4 -11 2 -34 0 -52 -5 -18 -4
-33 -3 -33 1 0 5 -15 4 -33 -1 -18 -5 -66 -10 -107 -11 -41 -2 -78 -7 -82 -13
-4 -6 -8 -1 -9 10 -3 44 -5 48 -19 52 -9 3 -11 1 -5 -4 6 -4 12 -19 13 -33 1
-23 -2 -25 -34 -25 -19 0 -39 7 -45 15 -8 12 -9 10 -4 -7 7 -27 2 -29 -20 -7
-12 13 -19 14 -30 4 -12 -10 -18 -10 -30 0 -12 10 -15 10 -15 -4 0 -11 -9 -16
-27 -17 -16 -1 -43 -2 -61 -4 -24 -2 -37 3 -45 16 -7 11 -20 19 -31 19 -16 0
-16 -2 5 -20 29 -23 10 -26 -32 -5 -16 9 -27 20 -24 25 4 6 -1 7 -11 3 -11 -4
-13 -8 -6 -11 7 -2 12 -11 11 -20 0 -11 -2 -12 -6 -4 -2 6 -9 12 -15 12 -6 0
-8 -7 -4 -15 3 -8 1 -15 -3 -15 -26 0 -21 85 6 105 22 17 33 11 28 -15 -2 -12
0 -18 6 -14 6 3 8 17 5 30 -4 14 -2 24 4 24 6 0 8 -4 5 -10 -4 -6 7 -10 27 -9
31 1 32 1 8 9 -20 6 -16 8 23 9 27 1 46 5 43 10 -3 5 19 8 50 7 30 0 58 4 62
9 10 14 32 17 32 5 0 -5 5 -10 10 -10 6 0 10 8 10 18 0 14 2 15 10 2 6 -10 10
-11 10 -2 0 6 3 11 8 10 16 -4 148 15 191 28 25 7 47 11 50 9 2 -3 10 0 18 6
10 9 13 8 13 -1 0 -10 3 -10 14 -1 11 9 15 9 19 -1 3 -10 6 -9 11 3 9 22 150
23 816 4z m-1579 -144 c-11 -7 -9 -10 7 -15 11 -4 24 -6 28 -5 19 3 34 -1 34
-11 0 -5 -20 -8 -45 -6 -38 3 -43 1 -34 -11 17 -19 3 -28 -23 -15 -13 6 -17
11 -10 11 6 1 12 6 12 12 0 6 -9 9 -20 6 -11 -3 -20 -1 -20 4 0 5 9 9 20 9 11
0 23 7 26 15 4 8 14 15 23 15 13 0 13 -2 2 -9z m39 5 c0 -3 -4 -8 -10 -11 -5
-3 -10 -1 -10 4 0 6 5 11 10 11 6 0 10 -2 10 -4z m40 -6 c0 -5 -7 -10 -16 -10
-8 0 -12 5 -9 10 3 6 10 10 16 10 5 0 9 -4 9 -10z m4217 -12 c-3 -8 -6 -5 -6
6 -1 11 2 17 5 13 3 -3 4 -12 1 -19z m-4360 6 c-3 -3 -12 -4 -19 -1 -8 3 -5 6
6 6 11 1 17 -2 13 -5z m4318 -22 c-3 -3 -11 0 -18 7 -9 10 -8 11 6 5 10 -3 15
-9 12 -12z m-4375 -12 c0 -5 -5 -10 -11 -10 -5 0 -7 5 -4 10 3 6 8 10 11 10 2
0 4 -4 4 -10z m196 -48 c-8 -7 -46 19 -41 28 3 5 14 2 25 -7 11 -9 18 -19 16
-21z"/>
<path d="M16585 3960 c3 -5 8 -10 11 -10 2 0 4 5 4 10 0 6 -5 10 -11 10 -5 0
-7 -4 -4 -10z"/>
<path d="M20015 4080 c-3 -6 1 -7 9 -4 18 7 21 14 7 14 -6 0 -13 -4 -16 -10z"/>
<path d="M21040 3926 c0 -2 9 -6 20 -9 11 -3 18 -1 14 4 -5 9 -34 13 -34 5z"/>
<path d="M21230 3901 c0 -6 5 -13 10 -16 6 -3 10 1 10 9 0 9 -4 16 -10 16 -5
0 -10 -4 -10 -9z"/>
<path d="M21191 3884 c0 -11 3 -14 6 -6 3 7 2 16 -1 19 -3 4 -6 -2 -5 -13z"/>
<path d="M21100 3869 c0 -5 5 -7 10 -4 6 3 10 8 10 11 0 2 -4 4 -10 4 -5 0
-10 -5 -10 -11z"/>
<path d="M21160 3860 c0 -5 5 -10 10 -10 6 0 10 5 10 10 0 6 -4 10 -10 10 -5
0 -10 -4 -10 -10z"/>
<path d="M21058 3853 c7 -3 16 -2 19 1 4 3 -2 6 -13 5 -11 0 -14 -3 -6 -6z"/>
<path d="M21117 3853 c-4 -3 -7 -11 -7 -17 0 -6 5 -5 12 2 6 6 9 14 7 17 -3 3
-9 2 -12 -2z"/>
<path d="M21217 3839 c7 -7 15 -10 18 -7 3 3 -2 9 -12 12 -14 6 -15 5 -6 -5z"/>
<path d="M21200 3818 c0 -12 7 -18 23 -17 15 0 17 2 7 6 -8 3 -18 11 -22 17
-5 7 -8 4 -8 -6z"/>
<path d="M21307 3823 c-12 -11 -8 -23 8 -23 8 0 15 7 15 15 0 16 -12 20 -23 8z"/>
<path d="M21090 3795 c0 -8 5 -15 10 -15 6 0 10 7 10 15 0 8 -4 15 -10 15 -5
0 -10 -7 -10 -15z"/>
<path d="M21275 3800 c4 -6 -5 -10 -21 -10 -34 0 -29 -5 12 -13 28 -5 31 -4
27 13 -3 11 -10 20 -15 20 -5 0 -6 -4 -3 -10z"/>
<path d="M20946 3763 c-6 -14 -5 -15 5 -6 7 7 10 15 7 18 -3 3 -9 -2 -12 -12z"/>
<path d="M21190 3766 c0 -2 9 -6 20 -9 11 -3 18 -1 14 4 -5 9 -34 13 -34 5z"/>
<path d="M21240 3766 c0 -2 9 -6 20 -9 11 -3 18 -1 14 4 -5 9 -34 13 -34 5z"/>
<path d="M21083 3745 c5 -15 34 -18 34 -3 0 8 -9 14 -19 14 -10 0 -17 -5 -15
-11z"/>
<path d="M10947 3519 c7 -7 15 -10 18 -7 3 3 -2 9 -12 12 -14 6 -15 5 -6 -5z"/>
<path d="M11238 3523 c7 -3 16 -2 19 1 4 3 -2 6 -13 5 -11 0 -14 -3 -6 -6z"/>
<path d="M11390 3520 c-9 -6 -10 -10 -3 -10 6 0 15 5 18 10 8 12 4 12 -15 0z"/>
<path d="M10980 3500 c0 -11 48 -25 57 -16 4 3 -3 6 -15 6 -12 0 -22 5 -22 10
0 6 -4 10 -10 10 -5 0 -10 -4 -10 -10z"/>
<path d="M7 4223 c7 -2 19 -2 26 0 6 3 1 5 -13 5 -14 0 -19 -2 -13 -5z"/>
</g>
</svg>
